<?xml version="1.0" standalone="no"?>
<!DOCTYPE svg PUBLIC "-//W3C//DTD SVG 20010904//EN"
 "http://www.w3.org/TR/2001/REC-SVG-20010904/DTD/svg10.dtd">
<svg version="1.0" xmlns="http://www.w3.org/2000/svg"
 width="700.000000pt" height="700.000000pt" viewBox="0 0 700.000000 700.000000"
 preserveAspectRatio="xMidYMid meet">
<metadata>
Created by potrace 1.11, written by Peter Selinger 2001-2013
</metadata>
<g transform="translate(0.000000,700.000000) scale(0.100000,-0.100000)"
fill="#000000" stroke="none">
<path d="M3539 6816 c-2 -2 -40 -6 -84 -10 -82 -6 -92 -7 -230 -32 -355 -65
-702 -213 -1005 -430 -52 -37 -97 -70 -100 -73 -3 -4 -30 -26 -60 -51 -187
-152 -433 -448 -560 -675 -172 -305 -271 -607 -317 -965 -14 -115 -8 -524 10
-635 17 -100 19 -111 36 -195 25 -121 98 -348 145 -453 13 -28 26 -59 27 -67
2 -8 -15 -46 -37 -85 -23 -38 -75 -128 -116 -200 -301 -522 -290 -500 -294
-600 -6 -139 68 -259 205 -337 31 -17 137 -79 236 -136 277 -161 353 -205 740
-428 198 -114 376 -217 395 -228 19 -12 46 -27 60 -34 14 -7 41 -22 61 -35 65
-39 329 -191 367 -211 122 -62 264 -52 379 26 57 39 73 61 212 303 67 116 125
217 130 225 6 8 38 65 72 125 95 167 90 163 157 170 109 13 317 55 417 84 644
186 1171 599 1502 1176 41 71 113 218 114 232 0 5 5 13 9 18 26 31 121 321
146 445 47 236 59 346 58 565 0 125 -10 291 -20 338 -3 12 -6 36 -8 52 -17
132 -97 421 -152 543 -13 29 -24 55 -24 58 0 16 -126 255 -177 336 -253 402
-592 708 -1023 924 -81 41 -153 74 -159 74 -6 0 -19 4 -29 10 -41 23 -254 90
-372 116 -33 7 -223 40 -280 49 -47 7 -425 16 -431 11z"/>
<path d="M916 1648 c-70 -110 -197 -348 -205 -386 -25 -117 14 -255 95 -336
29 -29 213 -142 404 -248 25 -14 142 -81 260 -150 118 -69 244 -141 280 -162
36 -20 72 -41 80 -46 89 -56 321 -185 362 -201 121 -48 296 -5 381 94 44 52
229 366 222 377 -5 7 -171 107 -205 123 -8 4 -28 16 -45 26 -44 27 -257 151
-260 151 -1 0 -91 52 -200 115 -108 63 -199 115 -201 115 -3 0 -23 11 -45 25
-36 24 -251 148 -341 199 -137 78 -508 293 -530 308 -33 23 -35 23 -52 -4z"/>
</g>
</svg>
