<?xml version="1.0" standalone="no"?>
<!DOCTYPE svg PUBLIC "-//W3C//DTD SVG 20010904//EN"
 "http://www.w3.org/TR/2001/REC-SVG-20010904/DTD/svg10.dtd">
<svg version="1.0" xmlns="http://www.w3.org/2000/svg"
 width="700.000000pt" height="700.000000pt" viewBox="0 0 700.000000 700.000000"
 preserveAspectRatio="xMidYMid meet">
<metadata>
Created by potrace 1.11, written by Peter Selinger 2001-2013
</metadata>
<g transform="translate(0.000000,700.000000) scale(0.100000,-0.100000)"
fill="#000000" stroke="none">
<path d="M3539 6816 c-2 -2 -40 -6 -84 -10 -82 -6 -92 -7 -230 -32 -355 -65
-702 -213 -1005 -430 -52 -37 -97 -70 -100 -73 -3 -3 -27 -24 -55 -46 -92 -73
-283 -275 -372 -393 -181 -238 -286 -434 -379 -707 -26 -77 -78 -283 -89 -355
-4 -25 -9 -53 -11 -63 -2 -11 -6 -46 -10 -78 l-7 -59 854 0 c1616 -1 1882 0
1885 3 2 2 -197 205 -443 450 l-447 447 185 185 185 185 767 -767 767 -768
-766 -766 -766 -766 -184 185 c-102 102 -183 186 -182 188 2 2 202 203 446
446 243 244 442 446 442 449 0 3 -617 5 -1370 5 l-1371 0 6 -51 c10 -77 17
-116 61 -314 27 -125 127 -367 211 -514 l45 -77 -48 -83 c-26 -45 -59 -102
-74 -127 -106 -176 -267 -463 -282 -503 -60 -158 3 -338 150 -431 20 -12 127
-75 237 -138 202 -116 715 -413 1140 -658 224 -130 277 -157 319 -166 123 -27
261 16 345 106 20 22 111 170 181 295 19 34 88 153 125 217 6 9 23 41 39 70
15 29 34 60 40 68 7 8 18 27 26 43 13 27 15 27 109 28 439 5 864 141 1266 405
496 327 832 771 1010 1334 23 72 40 137 50 190 3 14 8 36 11 50 3 14 8 36 10
50 3 14 9 50 15 80 29 162 31 587 3 723 -2 12 -6 36 -8 52 -21 147 -97 420
-152 543 -13 29 -24 55 -24 58 0 16 -126 255 -177 336 -253 402 -593 710
-1022 923 -260 130 -490 198 -841 250 -47 7 -425 16 -431 11z"/>
<path d="M1066 1361 c-119 -209 -130 -239 -123 -341 10 -157 74 -238 272 -345
39 -20 75 -41 80 -45 6 -4 87 -52 180 -105 94 -54 235 -136 315 -182 190 -109
254 -126 370 -96 112 28 176 83 255 218 167 284 156 261 131 274 -12 6 -42 23
-68 39 -61 35 -577 334 -603 348 -11 6 -90 52 -175 101 -427 249 -523 303
-530 303 -4 0 -51 -76 -104 -169z"/>
</g>
</svg>
